<svg xmlns="http://www.w3.org/2000/svg" id="_Шар_1" data-name="Шар_1" version="1.1" viewBox="0 0 305.8 99"><defs><style>.st0{fill:#fff}</style></defs><path d="M0 0h7.95l16.14 26.23L40.47 0h7.59L27.89 32.63v28.48h-7.71V32.63z" class="st0"/><path d="M48.06 0h-7.95L23.97 26.23 7.59 0H0l20.17 32.63v28.48h7.71V32.63zM61.94 37.74V0h7.59v37.74c0 10.92 6.05 16.85 16.49 16.85s16.61-5.93 16.61-16.97V0h7.48v37.74c0 14.71-8.9 23.38-23.97 23.38s-24.21-8.66-24.21-23.38ZM129.94 0h20.17C163.04 0 171 6.53 171 17.8c0 9.02-5.93 14.83-12.7 16.49l15.43 26.7h-8.31l-13.88-24.8h-14.12v24.8h-7.59V0h.12Zm20.29 30.14c7.71 0 12.93-4.27 12.93-11.99s-5.34-11.99-14.6-11.99h-11.04v23.97h12.7ZM185.59 30.5c0-18.51 10.92-30.5 27.89-30.5s27.77 11.99 27.77 30.5S230.33 61 213.48 61c-16.97.12-27.89-11.87-27.89-30.5m27.89 24.09c11.99 0 19.94-9.49 19.94-23.97s-7.95-24.09-19.94-24.09-19.94 9.49-19.94 23.97 7.95 24.09 19.94 24.09M258.46 0h8.66l31.45 49.01V0h7.24v60.99h-7.59l-32.51-50.55v50.67h-7.24V0ZM7.95 70.81h7.02c2.26 0 4.04.59 5.35 1.67s2.02 2.62 2.02 4.64c0 1.55-.48 2.85-1.31 3.93-.95 1.07-2.02 1.78-3.21 2.02l5.23 9.4h-2.38l-4.88-8.8H10.2v8.8H7.94V70.82Zm7.14 10.94c1.43 0 2.62-.36 3.57-1.19s1.31-1.9 1.31-3.33-.48-2.62-1.43-3.45-2.38-1.19-4.04-1.19h-4.28v9.16h4.88ZM28.05 91.63c-1.07-.59-2.02-1.55-2.62-2.74s-.95-2.62-.95-4.16.36-2.85.95-4.04 1.43-2.14 2.62-2.85c1.07-.71 2.38-1.07 3.81-1.07 1.31 0 2.5.36 3.57.95s1.78 1.43 2.38 2.5.83 2.26.83 3.57c0 .36 0 .83-.12 1.19h-11.9c0 1.31.24 2.38.71 3.33.48.95 1.07 1.67 1.9 2.14s1.67.71 2.62.71c2.26 0 3.81-1.19 4.64-3.45l1.9.48c-.36 1.31-1.19 2.5-2.26 3.33-1.07.95-2.62 1.31-4.4 1.31-1.31-.24-2.5-.48-3.69-1.19Zm8.33-8.57c-.12-1.31-.59-2.5-1.43-3.33-.83-.95-1.9-1.31-3.33-1.31-1.31 0-2.38.48-3.33 1.31-.83.83-1.43 2.02-1.67 3.45h9.75v-.12ZM43.87 97.57c-1.19-.83-2.02-2.02-2.38-3.57l1.9-.48c.24 1.19.83 2.02 1.67 2.74.83.71 1.9.95 3.21.95 1.43 0 2.5-.48 3.33-1.31s1.19-2.02 1.19-3.57v-3.45c-.48 1.19-1.31 2.14-2.26 2.85s-2.14 1.07-3.45 1.07-2.38-.36-3.33-.95-1.78-1.55-2.26-2.85c-.59-1.19-.83-2.62-.83-4.28 0-1.55.24-2.97.83-4.16a8 8 0 0 1 2.38-2.85c.95-.59 2.02-.95 3.21-.95 1.31 0 2.5.36 3.45 1.07s1.78 1.67 2.26 2.85v-3.69h2.14v15.23c0 2.14-.59 3.81-1.78 5S50.41 99 48.27 99c-1.67-.24-3.09-.59-4.4-1.43m.48-8.32c.83 1.19 2.02 1.67 3.45 1.67.95 0 1.9-.24 2.62-.83.83-.59 1.43-1.31 1.78-2.26.48-.95.59-2.02.59-3.21s-.24-2.26-.71-3.21a6.9 6.9 0 0 0-1.78-2.26c-.71-.59-1.67-.83-2.5-.83-.95 0-1.78.24-2.5.71-.71.48-1.31 1.19-1.78 2.14-.36.95-.59 2.02-.59 3.33.12 2.02.48 3.57 1.43 4.76ZM61.84 91.63a6.5 6.5 0 0 1-2.62-2.74c-.59-1.19-.95-2.62-.95-4.16s.36-2.85.95-4.04 1.43-2.14 2.62-2.85c1.07-.71 2.38-1.07 3.81-1.07 1.31 0 2.5.36 3.57.95s1.78 1.43 2.38 2.5.83 2.26.83 3.57c0 .36 0 .83-.12 1.19H60.53c0 1.31.24 2.38.71 3.33.48.95 1.07 1.67 1.9 2.14.83.48 1.67.71 2.62.71 2.26 0 3.81-1.19 4.64-3.45l1.9.48c-.36 1.31-1.19 2.5-2.26 3.33-1.07.95-2.62 1.31-4.4 1.31-1.31-.24-2.62-.48-3.81-1.19Zm8.32-8.57c-.12-1.31-.59-2.5-1.43-3.33-.83-.95-1.9-1.31-3.33-1.31-1.31 0-2.38.48-3.33 1.31-.83.83-1.43 2.02-1.67 3.45h9.75v-.12ZM75.63 76.88h2.14v3.93c.59-1.19 1.43-2.26 2.5-2.97s2.26-1.19 3.57-1.19 2.38.48 3.21 1.31 1.07 2.26 1.07 3.93v10.47h-2.14V82.13c0-2.5-.95-3.81-2.97-3.81-1.31 0-2.38.48-3.33 1.55s-1.55 2.38-1.78 3.81v8.56h-2.14V76.9h-.12ZM94.78 91.63a6.5 6.5 0 0 1-2.62-2.74c-.59-1.19-.95-2.62-.95-4.16s.36-2.85.95-4.04 1.43-2.14 2.62-2.85c1.07-.71 2.38-1.07 3.81-1.07 1.31 0 2.5.36 3.57.95s1.78 1.43 2.38 2.5.83 2.26.83 3.57c0 .36 0 .83-.12 1.19H93.47c0 1.31.24 2.38.71 3.33.48.95 1.07 1.67 1.9 2.14s1.67.71 2.62.71c2.26 0 3.81-1.19 4.64-3.45l1.9.48c-.36 1.31-1.19 2.5-2.26 3.33-1.19.71-2.62 1.07-4.4 1.07-1.43 0-2.62-.24-3.81-.95Zm8.33-8.57c-.12-1.31-.59-2.5-1.43-3.33-.83-.95-1.9-1.31-3.33-1.31-1.31 0-2.38.48-3.33 1.31-.83.83-1.43 2.02-1.67 3.45h9.75v-.12ZM108.58 76.88h2.14v4.16c.48-1.31 1.07-2.38 2.02-3.21s1.9-1.19 3.09-1.19v2.26c-1.55 0-2.85.48-3.81 1.55-.95 1.07-1.43 2.62-1.43 4.52v7.37h-2.14V76.88h.12ZM126.54 79.37c-.59-.59-1.55-.95-2.74-.95s-2.02.24-2.85.83c-.71.59-1.31 1.31-1.67 2.26l-1.9-.48c.36-1.31 1.19-2.26 2.38-3.09s2.5-1.19 4.16-1.19c1.9 0 3.33.48 4.28 1.43s1.43 2.26 1.43 4.04v10.35h-2.14v-3.21c-.59 1.07-1.31 1.9-2.38 2.5s-2.14.95-3.45.95c-1.43 0-2.62-.36-3.45-1.07-.95-.71-1.43-1.78-1.43-2.97 0-1.55.59-2.62 1.67-3.33 1.07-.71 2.74-1.19 4.64-1.31 1.31-.12 2.38-.24 3.09-.48s1.07-.59 1.19-1.07v-.24c0-1.43-.24-2.38-.83-2.97M120 90.32c.59.48 1.43.71 2.38.71 1.31 0 2.38-.48 3.33-1.31s1.55-2.02 1.67-3.45v-2.26c-.59.71-1.9 1.19-3.69 1.31-1.67.12-2.74.36-3.57.83-.71.36-1.19 1.07-1.19 2.14.12.95.48 1.55 1.07 2.02ZM134.99 91.39c-.71-.71-1.07-1.67-1.07-2.97v-9.75h-1.9v-1.78h1.9v-3.21l2.14-1.07v4.28h3.81v1.78h-3.81v9.64c0 .71.24 1.31.59 1.67s.83.59 1.55.59h1.67v1.78h-1.9c-1.19.12-2.26-.24-2.97-.95ZM142.48 71.64h2.26v2.97h-2.26zm.12 5.24h2.14v15.58h-2.14zM147.12 76.88h2.14l4.76 12.85 4.88-12.85h2.02l-5.83 15.58h-2.38zM165.32 91.63c-1.07-.59-2.02-1.55-2.62-2.74s-.95-2.62-.95-4.16.36-2.85.95-4.04 1.43-2.14 2.62-2.85c1.07-.71 2.38-1.07 3.81-1.07 1.31 0 2.5.36 3.57.95s1.78 1.43 2.38 2.5.83 2.26.83 3.57c0 .36 0 .83-.12 1.19h-11.78c0 1.31.24 2.38.71 3.33.48.95 1.07 1.67 1.9 2.14.83.48 1.67.71 2.62.71 2.26 0 3.81-1.19 4.64-3.45l1.9.48c-.36 1.31-1.19 2.5-2.26 3.33-1.07.95-2.62 1.31-4.4 1.31-1.43-.24-2.74-.48-3.81-1.19Zm8.33-8.57c-.12-1.31-.59-2.5-1.43-3.33-.83-.95-1.9-1.31-3.33-1.31-1.31 0-2.38.48-3.33 1.31-.83.83-1.43 2.02-1.67 3.45h9.75v-.12ZM189.83 74.02v18.44h-2.14V70.81h2.97l7.73 18.91L206 70.81h2.97v21.65h-2.14V73.9l-7.49 18.56h-2.02zM216 91.63c-1.07-.59-2.02-1.55-2.62-2.74s-.95-2.62-.95-4.16.36-2.85.95-4.04 1.43-2.14 2.62-2.85c1.07-.71 2.38-1.07 3.81-1.07 1.31 0 2.5.36 3.57.95s1.78 1.43 2.38 2.5.83 2.26.83 3.57c0 .36 0 .83-.12 1.19h-11.9c0 1.31.24 2.38.71 3.33.48.95 1.07 1.67 1.9 2.14.83.48 1.67.71 2.62.71 2.26 0 3.81-1.19 4.64-3.45l1.9.48c-.36 1.31-1.19 2.5-2.26 3.33-1.07.95-2.62 1.31-4.4 1.31-1.31-.24-2.5-.48-3.69-1.19Zm8.32-8.57c-.12-1.31-.59-2.5-1.43-3.33-.83-.95-1.9-1.31-3.33-1.31-1.31 0-2.38.48-3.33 1.31-.83.83-1.43 2.02-1.67 3.45h9.75v-.12ZM240.86 88.77c-.48 1.19-1.31 2.14-2.26 2.85s-2.14 1.07-3.45 1.07-2.38-.36-3.33-.95-1.78-1.55-2.26-2.85c-.59-1.19-.83-2.62-.83-4.28 0-1.55.24-2.97.83-4.16s1.43-2.14 2.38-2.85c.95-.59 2.02-.95 3.21-.95 1.31 0 2.5.36 3.45 1.07s1.78 1.67 2.26 2.85v-9.75H243v21.65h-2.14v-3.69Zm-8.57.48c.83 1.19 2.02 1.67 3.45 1.67.95 0 1.9-.24 2.62-.83.83-.59 1.43-1.31 1.78-2.26.48-.95.59-2.02.59-3.21s-.24-2.26-.71-3.21a6.9 6.9 0 0 0-1.78-2.26c-.71-.59-1.67-.83-2.5-.83-.95 0-1.78.24-2.5.71-.71.48-1.31 1.19-1.78 2.14-.36.95-.59 2.02-.59 3.33.12 2.02.48 3.57 1.43 4.76ZM247.4 71.64h2.26v2.97h-2.26zm.12 5.24h2.14v15.58h-2.14zM256.56 91.63c-1.19-.59-2.02-1.55-2.74-2.74-.71-1.19-.95-2.62-.95-4.28s.36-3.09.95-4.28a6.5 6.5 0 0 1 2.62-2.74c1.07-.59 2.38-.95 3.81-.95 1.67 0 3.09.48 4.16 1.31 1.19.95 1.9 2.14 2.26 3.57l-2.02.59c-.36-1.19-.83-2.14-1.67-2.74-.83-.71-1.78-.95-2.85-.95-.95 0-1.78.24-2.62.71-.71.48-1.31 1.19-1.78 2.14-.48.95-.59 2.02-.59 3.21 0 1.31.24 2.5.71 3.45.48.95 1.07 1.67 1.9 2.14.83.48 1.67.71 2.62.71 1.19 0 2.14-.36 2.85-1.07.83-.71 1.31-1.55 1.67-2.74l2.02.48c-.48 1.43-1.19 2.74-2.38 3.57-1.19.95-2.5 1.43-4.28 1.43-1.31.12-2.62-.12-3.69-.83ZM269.52 71.64h2.26v2.97h-2.26zm.12 5.24h2.14v15.58h-2.14zM276.18 76.88h2.14v3.93c.59-1.19 1.43-2.26 2.5-2.97s2.26-1.19 3.57-1.19 2.38.48 3.21 1.31 1.07 2.26 1.07 3.93v10.47h-2.14V82.13c0-2.5-.95-3.81-2.97-3.81-1.31 0-2.38.48-3.33 1.55s-1.55 2.38-1.78 3.81v8.56h-2.14V76.9h-.12ZM295.34 91.63a6.5 6.5 0 0 1-2.62-2.74c-.59-1.19-.95-2.62-.95-4.16s.36-2.85.95-4.04 1.43-2.14 2.62-2.85c1.07-.71 2.38-1.07 3.81-1.07 1.31 0 2.5.36 3.57.95s1.78 1.43 2.38 2.5.83 2.26.83 3.57c0 .36 0 .83-.12 1.19h-11.78c0 1.31.24 2.38.71 3.33.48.95 1.07 1.67 1.9 2.14.83.48 1.67.71 2.62.71 2.26 0 3.81-1.19 4.64-3.45l1.9.48c-.36 1.31-1.19 2.5-2.26 3.33-1.07.95-2.62 1.31-4.4 1.31-1.43-.24-2.74-.48-3.81-1.19Zm8.32-8.57c-.12-1.31-.59-2.5-1.43-3.33-.83-.95-1.9-1.31-3.33-1.31-1.31 0-2.38.48-3.33 1.31-.83.83-1.43 2.02-1.67 3.45h9.75v-.12Z" class="st0"/></svg>